<svg width="25" height="24" viewBox="0 0 25 24" fill="none" xmlns="http://www.w3.org/2000/svg">
<path d="M19.5 5H17.5V3H7.5V5H5.5C4.4 5 3.5 5.9 3.5 7V8C3.5 10.55 5.42 12.63 7.89 12.94C8.20625 13.6894 8.7002 14.3505 9.32916 14.8662C9.95813 15.3819 10.7032 15.7367 11.5 15.9V19H7.5V21H17.5V19H13.5V15.9C14.2968 15.7367 15.0419 15.3819 15.6708 14.8662C16.2998 14.3505 16.7937 13.6894 17.11 12.94C19.58 12.63 21.5 10.55 21.5 8V7C21.5 5.9 20.6 5 19.5 5ZM5.5 8V7H7.5V10.82C6.34 10.4 5.5 9.3 5.5 8ZM12.5 14C10.85 14 9.5 12.65 9.5 11V5H15.5V11C15.5 12.65 14.15 14 12.5 14ZM19.5 8C19.5 9.3 18.66 10.4 17.5 10.82V7H19.5V8Z" fill="white"/>
</svg>
