<svg width="24" height="24" viewBox="0 0 24 24" fill="none" xmlns="http://www.w3.org/2000/svg">
<path d="M20 10V7C20 5.9 19.1 5 18 5H6C4.9 5 4 5.9 4 7V10C2.9 10 2 10.9 2 12V17H3.33L3.84 18.53C3.94 18.81 4.2 19 4.5 19C4.64517 18.9998 4.78667 18.9544 4.90491 18.8702C5.02316 18.786 5.1123 18.6671 5.16 18.53L5.67 17H18.34L18.85 18.53C18.94 18.81 19.2 19 19.5 19C19.6452 18.9998 19.7867 18.9544 19.9049 18.8702C20.0232 18.786 20.1123 18.6671 20.16 18.53L20.67 17H22V12C22 10.9 21.1 10 20 10ZM11 10H6V8C6 7.45 6.45 7 7 7H11V10ZM18 10H13V7H17C17.55 7 18 7.45 18 8V10Z" fill="#21D5DF"/>
</svg>
