<svg width="25" height="24" viewBox="0 0 25 24" fill="none" xmlns="http://www.w3.org/2000/svg">
<path d="M20.2628 12.98C20.3028 12.66 20.3328 12.34 20.3328 12C20.3328 11.66 20.3028 11.34 20.2628 11.02L22.3728 9.37005C22.5628 9.22005 22.6128 8.95005 22.4928 8.73005L20.4928 5.27005C20.4339 5.16687 20.3401 5.08807 20.2283 5.04775C20.1166 5.00744 19.9941 5.00825 19.8828 5.05005L17.3928 6.05005C16.8728 5.65005 16.3128 5.32005 15.7028 5.07005L15.3228 2.42005C15.3063 2.30239 15.2474 2.19481 15.1572 2.11748C15.067 2.04016 14.9517 1.9984 14.8328 2.00005H10.8328C10.5828 2.00005 10.3728 2.18005 10.3428 2.42005L9.96285 5.07005C9.35285 5.32005 8.79285 5.66005 8.27285 6.05005L5.78285 5.05005C5.72486 5.03038 5.66408 5.02025 5.60285 5.02005C5.43285 5.02005 5.26285 5.11005 5.17285 5.27005L3.17285 8.73005C3.04285 8.95005 3.10285 9.22005 3.29285 9.37005L5.40285 11.02C5.36285 11.34 5.33285 11.67 5.33285 12C5.33285 12.33 5.36285 12.66 5.40285 12.98L3.29285 14.63C3.10285 14.78 3.05285 15.05 3.17285 15.27L5.17285 18.73C5.2318 18.8332 5.32557 18.912 5.43735 18.9523C5.54913 18.9927 5.67161 18.9918 5.78285 18.95L8.27285 17.95C8.79285 18.35 9.35285 18.68 9.96285 18.93L10.3428 21.58C10.3728 21.82 10.5828 22 10.8328 22H14.8328C15.0828 22 15.2928 21.82 15.3228 21.58L15.7028 18.93C16.3128 18.68 16.8728 18.34 17.3928 17.95L19.8828 18.95C19.9428 18.97 20.0028 18.98 20.0628 18.98C20.2328 18.98 20.4028 18.89 20.4928 18.73L22.4928 15.27C22.6128 15.05 22.5628 14.78 22.3728 14.63L20.2628 12.98ZM18.2828 11.27C18.3228 11.58 18.3328 11.79 18.3328 12C18.3328 12.21 18.3128 12.43 18.2828 12.73L18.1428 13.86L19.0328 14.56L20.1128 15.4L19.4128 16.61L18.1428 16.1L17.1028 15.68L16.2028 16.36C15.7728 16.68 15.3628 16.92 14.9528 17.09L13.8928 17.52L13.7328 18.65L13.5328 20H12.1328L11.9428 18.65L11.7828 17.52L10.7228 17.09C10.2928 16.91 9.89285 16.68 9.49285 16.38L8.58285 15.68L7.52285 16.11L6.25285 16.62L5.55285 15.41L6.63285 14.57L7.52285 13.87L7.38285 12.74C7.35285 12.43 7.33285 12.2 7.33285 12C7.33285 11.8 7.35285 11.57 7.38285 11.27L7.52285 10.14L6.63285 9.44005L5.55285 8.60005L6.25285 7.39005L7.52285 7.90005L8.56285 8.32005L9.46285 7.64005C9.89285 7.32005 10.3028 7.08005 10.7128 6.91005L11.7728 6.48005L11.9328 5.35005L12.1328 4.00005H13.5228L13.7128 5.35005L13.8728 6.48005L14.9328 6.91005C15.3628 7.09005 15.7628 7.32005 16.1628 7.62005L17.0728 8.32005L18.1328 7.89005L19.4028 7.38005L20.1028 8.59005L19.0328 9.44005L18.1428 10.14L18.2828 11.27ZM12.8328 8.00005C10.6228 8.00005 8.83285 9.79005 8.83285 12C8.83285 14.21 10.6228 16 12.8328 16C15.0428 16 16.8328 14.21 16.8328 12C16.8328 9.79005 15.0428 8.00005 12.8328 8.00005ZM12.8328 14C11.7328 14 10.8328 13.1 10.8328 12C10.8328 10.9 11.7328 10 12.8328 10C13.9328 10 14.8328 10.9 14.8328 12C14.8328 13.1 13.9328 14 12.8328 14Z" fill="white"/>
</svg>
