<svg width="25" height="24" viewBox="0 0 25 24" fill="none" xmlns="http://www.w3.org/2000/svg">
<path d="M21.9565 5.8902L11.9565 15.8902C11.864 15.9829 11.7541 16.0565 11.6331 16.1066C11.5122 16.1568 11.3825 16.1826 11.2515 16.1826C11.1205 16.1826 10.9909 16.1568 10.8699 16.1066C10.7489 16.0565 10.639 15.9829 10.5465 15.8902L7.71651 13.0602C7.62392 12.9676 7.55048 12.8577 7.50038 12.7367C7.45027 12.6158 7.42449 12.4861 7.42449 12.3552C7.42449 12.2243 7.45027 12.0946 7.50038 11.9737C7.55048 11.8527 7.62392 11.7428 7.71651 11.6502C7.80909 11.5576 7.919 11.4842 8.03996 11.4341C8.16093 11.384 8.29058 11.3582 8.42151 11.3582C8.55244 11.3582 8.68209 11.384 8.80305 11.4341C8.92401 11.4842 9.03392 11.5576 9.12651 11.6502L11.2465 13.7702L20.5365 4.4802C20.629 4.3875 20.7389 4.31395 20.8599 4.26377C20.9809 4.21359 21.1105 4.18776 21.2415 4.18776C21.3725 4.18776 21.5022 4.21359 21.6231 4.26377C21.7441 4.31395 21.854 4.3875 21.9465 4.4802C22.3465 4.8702 22.3465 5.5002 21.9565 5.8902ZM16.4365 2.7402C14.7465 2.0502 12.8265 1.8102 10.8265 2.1702C6.75651 2.9002 3.50651 6.1802 2.81651 10.2502C2.54273 11.8009 2.63868 13.3942 3.09654 14.9008C3.55441 16.4074 4.36128 17.7847 5.45158 18.9208C6.54188 20.0569 7.88485 20.9197 9.37134 21.4392C10.8578 21.9586 12.4459 22.12 14.0065 21.9102C17.9665 21.4002 21.2865 18.4502 22.3265 14.6002C22.7265 13.1302 22.7665 11.7102 22.5365 10.3802C22.4065 9.5802 21.4165 9.2702 20.8365 9.8402C20.6065 10.0702 20.5065 10.4102 20.5665 10.7302C20.7865 12.0602 20.6865 13.4802 20.0465 14.9902C18.8865 17.7002 16.3665 19.6902 13.4365 19.9602C8.33651 20.4302 4.10651 16.1102 4.73651 10.9802C5.16651 7.4402 8.01651 4.5602 11.5465 4.0702C13.2765 3.8302 14.9165 4.1602 16.3165 4.8802C16.5525 5.00353 16.8279 5.02804 17.082 4.94833C17.3361 4.86863 17.5482 4.69125 17.6715 4.4552C17.7948 4.21916 17.8193 3.94379 17.7396 3.68968C17.6599 3.43557 17.4825 3.22353 17.2465 3.1002C16.9765 2.9802 16.7065 2.8502 16.4365 2.7402Z" fill="white"/>
</svg>
